<?xml version="1.0" encoding="UTF-8"?>
<svg width="553px" height="200px" viewBox="0 0 553 200" version="1.1" xmlns="http://www.w3.org/2000/svg" xmlns:xlink="http://www.w3.org/1999/xlink">
    <!-- Generator: Sketch 47.1 (45422) - http://www.bohemiancoding.com/sketch -->
    <title>Group</title>
    <desc>Created with Sketch.</desc>
    <defs></defs>
    <g id="Page-1" stroke="none" stroke-width="1" fill="none" fill-rule="evenodd">
        <g id="EFSET-Logo" transform="translate(-129.000000, -300.000000)" fill="#000000">
            <g id="Group" transform="translate(129.000000, 300.000000)">
                <path d="M254.978605,94.1532919 C254.978605,111.795783 264.928837,128.91546 289.196854,128.91546 C315.037387,128.91546 324.98762,110.397503 324.98762,94.1532919 C324.98762,51.0063788 261.613736,70.5699626 261.613736,31.7929815 C261.613736,17.2947703 270.866441,3.1442795 289.896846,3.1442795 C307.877263,3.1442795 319.225013,13.2774909 319.225013,30.9199815 L319.225013,33.8891678 L322.717577,33.8891678 L322.717577,31.2677018 C322.717577,16.5943975 314.512394,0 290.244377,0 C265.803826,0 258.121172,19.0407702 258.121172,31.0926086 C258.121172,52.2295652 272.088962,58.1679378 290.941903,64.1087765 C305.604755,68.8239627 321.497521,74.0644285 321.497521,93.280292 C321.497521,115.813062 306.482209,125.77118 289.021856,125.77118 C269.468923,125.77118 258.471168,113.194062 258.471168,94.1532919 L258.471168,88.7377329 L254.978605,88.7377329 L254.978605,94.1532919 Z M378.931335,126.819273 L437.070071,126.819273 L437.070071,123.674994 L382.426363,123.674994 L382.426363,63.2357765 L431.832458,63.2357765 L431.832458,60.0890309 L382.426363,60.0890309 L382.426363,5.24046584 L435.672552,5.24046584 L435.672552,2.09618634 L378.931335,2.09618634 L378.931335,126.819273 Z M515.634264,126.819273 L515.634264,5.24046584 L481.763546,5.24046584 L481.763546,2.09618634 L552.997546,2.09618634 L552.997546,5.24046584 L519.124363,5.24046584 L519.124363,126.819273 L515.634264,126.819273 Z M26.5696342,2.10062532 L40.0296831,2.10062532 C33.1727235,9.05996395 27.1636411,16.418811 22.0517309,24.1278446 L26.5696342,2.10062532 Z M24.9658155,83.6985009 C24.9658155,71.9277981 27.6573323,59.9573411 32.9540994,48.154579 C38.4653006,35.8684609 46.5447806,24.3591649 56.9657817,13.9472841 C61.3259403,9.58968257 65.9399692,5.63652175 70.7733616,2.097666 L92.0713442,2.097666 C91.3787469,2.4157931 90.6910791,2.74131851 90.0058761,3.08164052 C80.7876775,7.57980979 72.3187655,13.6488858 64.8431514,21.1187074 C57.002753,28.9584443 50.7126881,37.5478761 46.1627429,46.6650536 C41.7582186,55.4912311 39.0864198,64.5541544 38.2311485,73.6047472 C36.4934934,91.9426785 42.4015207,108.894661 54.8510184,121.328745 C57.4390154,123.915685 60.2907416,126.206694 63.3815494,128.177109 L41.3490686,128.177109 C36.4072268,122.593855 32.5153723,116.288033 29.7622365,109.378017 C26.5802326,101.387847 24.9658155,92.7515598 24.9658155,83.6985009 Z M29.1398849,46.4482833 C23.5991066,58.7911216 20.7868166,71.3312481 20.7868166,83.7012136 C20.7868166,93.2844843 22.5022889,102.448518 25.8814735,110.917111 C28.3684153,117.158814 31.7204875,122.93689 35.8933245,128.177355 L17.2104513,128.177355 C15.157307,124.722347 13.3752863,121.116907 11.8767128,117.368432 C9.43167185,111.264831 7.75810049,104.855433 6.86339297,98.2068231 L19.5273247,36.4309787 C25.7237289,24.9586742 33.8697574,14.1472849 43.8273838,4.19903115 C44.5396991,3.4961922 45.2544792,2.79335325 45.9766536,2.10037871 L63.9176344,2.10037871 C60.4940842,4.85748027 57.1863776,7.82420046 54.011768,11.0005393 C43.2284473,21.7700048 34.8605905,33.6936059 29.1398849,46.4482833 Z M139.866718,59.717636 C139.866718,67.8607034 135.745641,76.4624657 128.262633,83.9396856 C124.057754,88.1394566 119.224362,91.1875582 114.280055,93.0346682 L115.635673,86.4452448 C119.165208,84.9236602 122.509886,82.686906 125.327105,79.8681519 C129.978105,75.2244827 132.790395,69.4488728 133.2587,63.601746 C133.727004,57.7176276 131.826675,52.3094669 127.88799,48.3760349 C126.746806,47.2391621 125.447878,46.2773824 124.028177,45.5030265 L125.470061,38.4573744 C128.316858,39.5202641 130.853095,41.1355607 132.997435,43.2736707 C137.490691,47.7669078 139.866718,53.4488058 139.866718,59.717636 Z M124.930032,51.3259856 C127.988798,54.3790193 129.467654,58.6182479 129.095475,63.2668494 C128.706043,68.1275356 126.322621,72.9758913 122.371613,76.9142555 C120.665999,78.6281961 118.738558,80.0856621 116.695273,81.2619926 L123.135688,49.8413924 C123.77899,50.2803585 124.375462,50.778511 124.930032,51.3259856 Z M131.217386,86.8908694 C139.491582,78.626963 144.046457,68.9721754 144.046457,59.7168962 C144.046457,52.3185915 141.246491,45.6132613 135.947259,40.3259395 C133.260671,37.6378888 129.977612,35.6230838 126.312516,34.3505754 L127.95651,26.3308131 C133.263136,27.6748384 137.97822,30.2938383 141.769019,34.0867025 C156.311098,48.6145069 153.557962,73.2631921 135.370505,91.4260302 C128.368125,98.4297586 120.101323,103.295377 111.718678,105.519801 L113.308447,97.7787078 C119.812946,95.8280215 126.016745,92.0820132 131.217386,86.8908694 Z M4.68577839,108.82413 C5.57555639,112.264342 6.67976842,115.625638 7.99594973,118.915418 C9.27023014,122.104087 10.7367617,125.194112 12.3930798,128.178095 L0.717516386,128.178095 L4.68577839,108.82413 Z M71.9037001,31.4025976 L61.1327032,31.4025976 C63.2031008,28.8896401 65.4238487,26.4408012 67.7998763,24.0684115 C78.4229877,13.4617087 90.8379788,6.07573444 103.457545,2.10037871 L115.202122,2.10037871 L113.848969,8.72432753 C99.2699193,10.847641 85.0679779,18.2138864 73.6364257,29.6245384 C73.0473483,30.2139366 72.4730594,30.8082671 71.9037001,31.4025976 Z M110.793654,110.039425 C120.571353,107.888984 130.250461,102.448764 138.325012,94.3821461 C158.198364,74.5324946 160.951499,47.3437248 144.73092,31.1365052 C140.336255,26.7517766 134.901461,23.7480649 128.798718,22.2363447 L130.691653,13.0007943 C138.916554,14.4409976 146.406956,18.0612347 152.322378,23.9700141 C160.251508,31.8911323 164.52047,41.6371657 164.912367,52.520072 C164.932085,53.0626143 164.941944,53.6199533 164.941944,54.1698939 C164.939479,56.5102243 164.769411,58.8924784 164.416951,61.3166563 C162.462397,74.71252 155.257906,88.2144261 144.117195,99.3365442 C134.292666,109.151628 121.737184,115.889018 109.08804,118.374848 L110.793654,110.039425 Z M90.5917493,49.4046458 L98.2990508,49.4046458 C97.4117375,50.112417 96.5540014,50.8793746 95.7332366,51.6981203 C90.1702756,57.2567132 87.1090449,63.9842383 87.1090449,70.6402465 C87.1090449,73.6809497 87.7794593,76.5736869 89.051275,79.1408986 L81.6126323,79.1408986 C81.0383434,77.0496445 80.7450371,74.8326191 80.7450371,72.5070854 C80.7450371,64.6032298 84.3140082,56.2727387 90.5917493,49.4046458 Z M110.252146,26.2849436 L109.207088,31.4021044 L96.9375179,31.4021044 C101.199086,29.0173841 105.692342,27.2886469 110.252146,26.2849436 Z M167.089735,40.3866056 C164.883776,33.1559958 160.90812,26.6430216 155.276145,21.0178439 C150.307191,16.0511153 144.273461,12.4456748 137.352418,10.3001664 C135.449624,9.72063257 133.512323,9.25207327 131.533122,8.90188684 L132.928175,2.09791261 L145.133662,2.09791261 C151.763864,4.53935316 157.802523,8.29275976 162.909504,13.3926578 C168.184088,18.6676491 172.184392,24.7145301 174.821684,31.4025976 L169.246399,31.4025976 L167.277057,41.0105293 C167.215438,40.8009107 167.153819,40.591292 167.089735,40.3866056 Z M193.50505,31.4025976 L179.285856,31.4025976 C176.458777,23.5653268 171.945803,16.5221407 165.865243,10.4407342 C162.594508,7.17561574 158.934341,4.38892097 154.921713,2.10037871 L177.710875,2.10037871 C185.465007,10.4333359 190.803675,20.4111829 193.50505,31.4025976 Z M112.946621,13.1063434 L111.15967,21.8486735 C103.472087,23.2395548 95.9496425,26.5244021 89.1962028,31.402351 L77.7942276,31.402351 C88.2546649,21.4072413 100.736204,15.2247247 112.946621,13.1063434 Z M95.5032746,98.2931366 L93.8888575,106.039162 C88.4417401,104.78145 83.492504,102.150119 79.2826956,98.2635434 L95.4046843,98.2635434 L95.5131337,98.2635434 L95.5032746,98.2931366 Z M56.0126594,79.1408986 C55.9929413,78.5490342 55.975688,77.9522376 55.975688,77.3554411 C55.975688,67.9349331 58.6499515,58.3985183 63.6953132,49.4046458 L72.6349941,49.4046458 C67.8484321,57.3997471 65.2357876,66.186467 65.2357876,74.7783649 C65.2357876,76.2580259 65.3146598,77.7080936 65.4699397,79.1408986 L56.0126594,79.1408986 Z M93.0362973,110.127465 L91.2049814,118.909253 C82.1765691,117.562761 74.2425099,113.651524 67.972163,107.390092 C65.2633929,104.679846 62.9785613,101.612016 61.1571043,98.2630502 L73.4932232,98.2630502 C74.0872301,98.963423 74.7058846,99.6366688 75.356581,100.292652 C80.3625065,105.284041 86.3691242,108.615745 93.0362973,110.127465 Z M57.8042927,118.385453 C46.2470377,106.836699 40.7728079,91.0733777 42.3872251,73.9980904 C43.718195,59.9265148 49.8283325,45.6946426 59.8401836,33.00655 L56.5028999,49.3987272 L58.9504056,49.3987272 C54.2673635,58.4246589 51.7952102,67.9240822 51.7952102,77.3519885 C51.7952102,77.9537173 51.8149283,78.5480478 51.8346464,79.1399122 L50.3631852,79.1399122 L46.5354145,98.2669959 L56.460999,98.2669959 C58.6151984,102.733106 61.4891074,106.81697 65.0186423,110.338563 C71.8854609,117.196792 80.5343002,121.500139 90.3539001,123.009393 L89.2768004,128.178342 L72.2255976,128.178342 C66.7636917,125.776359 61.922905,122.491512 57.8042927,118.385453 Z M69.670382,79.1408986 C69.5003136,77.7204241 69.4115823,76.2654242 69.4115823,74.7783649 C69.4115823,66.1692043 72.3076741,57.3109675 77.5674698,49.4046458 L85.1170266,49.4046458 C82.9086026,52.2283321 81.0871457,55.2221794 79.6945568,58.3615267 C77.6192297,63.0347892 76.5643129,67.7943653 76.5643129,72.5095515 C76.5643129,74.7857632 76.8231126,77.0101868 77.3185291,79.1408986 L69.670382,79.1408986 Z M107.075565,128.176616 L108.182241,122.773387 C122.214114,120.40593 136.236128,113.121066 147.076139,102.287481 C150.918698,98.4502273 154.315136,94.3367699 157.223551,90.0383548 L153.740847,106.990337 C153.309514,107.431769 152.873252,107.887998 152.42713,108.326964 C143.53428,117.21726 132.647439,124.021234 121.109902,128.176616 L107.075565,128.176616 Z M149.389808,128.177849 L131.732274,128.177849 C139.114228,124.532951 146.072242,119.842425 152.251393,114.256705 L149.389808,128.177849 Z M169.114288,54.1706337 L178.500091,54.1706337 C178.423683,55.8229218 178.290586,57.4826081 178.086011,59.1521589 C177.065601,67.4851161 174.425844,75.857531 170.346668,83.9118187 L160.980584,83.9118187 C164.874903,76.8094462 167.467829,69.3568872 168.552323,61.921591 C168.934361,59.3025911 169.114288,56.7156506 169.114288,54.1706337 Z M183.280491,2.10062532 L202.988704,2.10062532 C204.933398,5.46438786 206.634082,8.9785826 208.080896,12.6333451 C210.447064,18.6111753 212.105847,24.892336 213.047385,31.4028442 L197.80778,31.4028442 C195.303585,20.5667939 190.403644,10.6234724 183.280491,2.10062532 Z M207.775019,2.10062532 L219.820296,2.10062532 L215.610488,22.6506497 C214.664021,18.6974889 213.451359,14.8479043 211.965109,11.09943 C210.740124,7.99954028 209.342606,5.00076077 207.775019,2.10062532 Z M192.425239,83.9137916 C196.011464,75.2627073 198.340661,66.3674789 199.27727,57.4796488 C199.393113,56.3748353 199.486774,55.2700218 199.558252,54.1701405 L208.061671,54.1701405 L202.055053,83.9137916 L192.425239,83.9137916 Z M182.67835,54.1706337 L195.371859,54.1706337 C195.302846,55.1299472 195.223973,56.0818625 195.117989,57.041176 C194.166592,66.0794382 191.706762,75.130031 187.883921,83.9118187 L174.993231,83.9118187 C178.769242,76.0054971 181.234001,67.8205059 182.237158,59.6601758 C182.458986,57.8130658 182.606872,55.9906167 182.67835,54.1706337 Z M91.2836072,70.6399999 C91.2836072,65.0962035 93.9135051,59.4217038 98.690208,54.6497973 C100.366244,52.9703821 102.222208,51.5523737 104.169367,50.4302975 L98.3722541,79.140652 L93.8987165,79.140652 C92.185709,76.7411352 91.2836072,73.8434658 91.2836072,70.6399999 Z" id="EFSET-Logo"></path>
                <path d="M0,199.641832 L0,178.355681 L10.7763894,178.355681 L10.7763894,179.964952 L1.94594868,179.964952 L1.94594868,187.720294 L10.1971775,187.720294 L10.1971775,189.32459 L1.94594868,189.32459 L1.94594868,198.035048 L11.0507529,198.035048 L11.0507529,199.641832 L0,199.641832 Z M23.5698588,199.641832 L23.5698588,178.355681 L34.3462482,178.355681 L34.3462482,179.964952 L25.5132671,179.964952 L25.5132671,187.720294 L33.7670363,187.720294 L33.7670363,189.32459 L25.5132671,189.32459 L25.5132671,199.641832 L23.5698588,199.641832 Z M75.4245643,183.812776 L73.4786156,183.812776 C73.4786156,181.188694 72.2617626,179.604296 69.579097,179.604296 C66.9294567,179.604296 65.4661846,181.308084 65.4661846,183.42476 C65.4661846,189.744941 76.0037762,186.317467 76.0037762,193.771849 C76.0037762,197.915659 73.3871611,200 69.4266729,200 C65.3137604,200 63.0959886,197.885811 63.0959886,193.682306 L63.0959886,193.055512 L65.0393969,193.055512 L65.0393969,193.861391 C65.0393969,196.602374 66.4721842,198.393217 69.3657032,198.393217 C72.1398232,198.393217 74.0578275,197.052572 74.0578275,194.070322 C74.0578275,187.720294 63.5202359,191.356699 63.5227763,183.633691 C63.5227763,180.293273 65.7405481,178 69.5181274,178 C73.5700701,178 75.4245643,179.994799 75.4245643,183.812776 Z M92.6942237,199.641832 L92.6942237,179.964952 L87.0926351,179.964952 L87.0926351,178.355681 L100.241761,178.355681 L100.241761,179.964952 L94.6401724,179.964952 L94.6401724,199.641832 L92.6942237,199.641832 Z M108.769894,199.641832 L115.197113,178.355681 L117.63336,178.355681 L124.058039,199.641832 L121.98761,199.641832 L120.22203,193.44104 L112.608443,193.44104 L110.842863,199.641832 L108.769894,199.641832 Z M113.03523,191.831769 L119.795243,191.831769 L116.444451,179.84805 L116.383481,179.84805 L113.03523,191.831769 Z M135.784539,199.641832 L135.784539,178.355681 L138.398614,178.355681 L146.715893,196.900848 L146.776863,196.900848 L146.776863,178.355681 L148.722811,178.355681 L148.722811,199.641832 L146.106196,199.641832 L137.788917,181.101639 L137.727947,181.101639 L137.727947,199.641832 L135.784539,199.641832 Z M162.184407,199.641832 L162.184407,178.355681 L167.420177,178.355681 C173.755942,178.355681 175.305588,182.051781 175.305588,188.998756 C175.305588,195.948219 173.755942,199.641832 167.420177,199.641832 L162.184407,199.641832 Z M164.130355,179.964952 L164.130355,198.035048 L167.298238,198.035048 C171.563574,198.035048 173.36218,195.948219 173.36218,189.026116 C173.36218,182.021933 171.563574,179.964952 167.298238,179.964952 L164.130355,179.964952 Z M186.849179,199.641832 L193.273858,178.355681 L195.710105,178.355681 L202.134784,199.641832 L200.064355,199.641832 L198.298775,193.44104 L190.685188,193.44104 L188.919608,199.641832 L186.849179,199.641832 Z M191.111975,191.831769 L197.871988,191.831769 L194.523736,179.84805 L194.462767,179.84805 L191.111975,191.831769 Z M213.861284,199.641832 L213.861284,178.355681 L220.346933,178.355681 C224.002573,178.355681 225.979006,180.35048 225.979006,183.693386 C225.979006,186.257773 224.945062,188.553533 222.051543,189.15048 C224.762153,189.389259 225.674158,190.876653 225.765612,194.184737 L225.826582,196.510345 C225.857067,197.674392 225.979006,198.806105 226.738587,199.641832 L224.457305,199.641832 C224.002573,198.895647 223.911118,197.823629 223.880633,196.659582 L223.819664,194.871227 C223.667239,191.112945 223.027058,189.921538 219.493357,189.921538 L215.807233,189.921538 L215.807233,199.641832 L213.861284,199.641832 Z M215.807233,179.964952 L215.807233,188.312267 L219.158024,188.312267 C222.234452,188.312267 224.033057,186.97411 224.033057,184.141097 C224.033057,181.514528 222.905118,179.964952 219.371418,179.964952 L215.807233,179.964952 Z M239.135753,199.641832 L239.135753,178.355681 L244.371524,178.355681 C250.707289,178.355681 252.256934,182.051781 252.256934,188.998756 C252.256934,195.948219 250.707289,199.641832 244.371524,199.641832 L239.135753,199.641832 Z M241.081702,179.964952 L241.081702,198.035048 L244.249584,198.035048 C248.514921,198.035048 250.313526,195.948219 250.313526,189.026116 C250.313526,182.021933 248.514921,179.964952 244.249584,179.964952 L241.081702,179.964952 Z M285.330441,199.641832 L285.330441,178.355681 L296.10683,178.355681 L296.10683,179.964952 L287.276389,179.964952 L287.276389,187.720294 L295.530159,187.720294 L295.530159,189.32459 L287.276389,189.32459 L287.276389,198.035048 L296.381194,198.035048 L296.381194,199.641832 L285.330441,199.641832 Z M308.90284,199.641832 L308.90284,178.355681 L311.516915,178.355681 L319.831654,196.900848 L319.895164,196.900848 L319.895164,178.355681 L321.838572,178.355681 L321.838572,199.641832 L319.224497,199.641832 L310.907218,181.101639 L310.846248,181.101639 L310.846248,199.641832 L308.90284,199.641832 Z M346.59988,190.399096 L341.450483,190.399096 L341.450483,188.792312 L348.421349,188.792312 L348.421349,199.641832 L346.904728,199.641832 L346.904728,196.127304 L346.843758,196.127304 C346.142607,198.512606 344.255088,200 342.06018,200 C337.581449,200 335.119799,196.634709 335.119799,189.001244 C335.119799,181.362804 337.581449,178 342.06018,178 C346.203577,178 348.058071,180.646467 348.30195,184.317694 L346.356001,184.317694 C346.356001,181.753307 344.895269,179.604296 342.06018,179.604296 C338.983752,179.604296 337.065747,182.079141 337.065747,189.001244 C337.065747,195.918372 338.983752,198.393217 342.06018,198.393217 C344.984183,198.393217 346.59988,195.858677 346.59988,190.846806 L346.59988,190.399096 Z M361.702575,199.641832 L361.702575,178.355681 L363.648524,178.355681 L363.648524,198.035048 L372.659333,198.035048 L372.659333,199.641832 L361.702575,199.641832 Z M384.848187,199.641832 L384.848187,178.355681 L386.794135,178.355681 L386.794135,199.641832 L384.848187,199.641832 Z M411.85267,183.812776 L409.906722,183.812776 C409.906722,181.188694 408.689869,179.604296 406.007203,179.604296 C403.357563,179.604296 401.896831,181.308084 401.896831,183.42476 C401.896831,189.744941 412.434423,186.317467 412.434423,193.771849 C412.434423,197.915659 409.817808,200 405.85986,200 C401.746947,200 399.524095,197.885811 399.524095,193.682306 L399.524095,193.055512 L401.470043,193.055512 L401.470043,193.861391 C401.470043,196.602374 402.902831,198.393217 405.793809,198.393217 C408.567929,198.393217 410.488474,197.052572 410.488474,194.070322 C410.488474,187.720294 399.948342,191.356699 399.948342,183.633691 C399.948342,180.293273 402.171195,178 405.948774,178 C410.003257,178 411.85267,179.994799 411.85267,183.812776 Z M435.48858,199.641832 L435.48858,189.026116 L426.988391,189.026116 L426.988391,199.641832 L425.039902,199.641832 L425.039902,178.355681 L426.988391,178.355681 L426.988391,187.42182 L435.48858,187.42182 L435.48858,178.355681 L437.434528,178.355681 L437.434528,199.641832 L435.48858,199.641832 Z M473.645432,199.641832 L473.645432,179.964952 L468.038763,179.964952 L468.038763,178.355681 L481.19297,178.355681 L481.19297,179.964952 L475.588841,179.964952 L475.588841,199.641832 L473.645432,199.641832 Z M493.132864,199.641832 L493.132864,178.355681 L503.906713,178.355681 L503.906713,179.964952 L495.078812,179.964952 L495.078812,187.720294 L503.330041,187.720294 L503.330041,189.32459 L495.078812,189.32459 L495.078812,198.035048 L504.183616,198.035048 L504.183616,199.641832 L493.132864,199.641832 Z M528.180263,183.812776 L526.234314,183.812776 C526.234314,181.188694 525.014921,179.604296 522.334796,179.604296 C519.680075,179.604296 518.221883,181.308084 518.221883,183.42476 C518.221883,189.744941 528.756934,186.317467 528.756934,193.771849 C528.756934,197.915659 526.140319,200 522.182372,200 C518.069459,200 515.851687,197.885811 515.851687,193.682306 L515.851687,193.055512 L517.795096,193.055512 L517.795096,193.861391 C517.795096,196.602374 519.230423,198.393217 522.121402,198.393217 C524.892982,198.393217 526.813526,197.052572 526.813526,194.070322 C526.813526,187.720294 516.278475,191.356699 516.278475,183.633691 C516.278475,180.293273 518.496247,178 522.273826,178 C526.325769,178 528.180263,179.994799 528.180263,183.812776 Z M545.449922,199.641832 L545.449922,179.964952 L539.845793,179.964952 L539.845793,178.355681 L553,178.355681 L553,179.964952 L547.393331,179.964952 L547.393331,199.641832 L545.449922,199.641832 Z" id="Combined-Shape"></path>
            </g>
        </g>
    </g>
</svg>